<?xml version="1.0" standalone="no"?>
<!DOCTYPE svg PUBLIC "-//W3C//DTD SVG 20010904//EN"
 "http://www.w3.org/TR/2001/REC-SVG-20010904/DTD/svg10.dtd">
<svg version="1.0" xmlns="http://www.w3.org/2000/svg"
 width="1024.000000pt" height="1024.000000pt" viewBox="0 0 1024.000000 1024.000000"
 preserveAspectRatio="xMidYMid meet">
<metadata>
Created by potrace 1.16, written by Peter Selinger 2001-2019
</metadata>
<g transform="translate(0.000000,1024.000000) scale(0.100000,-0.100000)"
fill="#000000" stroke="none">
<path d="M7001 9420 c-13 -8 0 -22 34 -35 14 -5 16 -9 7 -12 -8 -3 -19 0 -25
6 -33 33 -49 19 -728 -660 l-671 -671 -36 6 c-101 16 -126 18 -117 9 6 -5 35
-15 65 -23 320 -76 657 -282 888 -543 527 -593 587 -1456 147 -2112 -261 -390
-647 -650 -1106 -746 -131 -27 -417 -37 -553 -19 -601 79 -1107 453 -1372
1014 -36 78 -60 142 -114 312 -6 17 -10 42 -10 57 0 15 -5 27 -11 27 -12 0
-10 -14 12 -120 6 -25 12 -57 16 -72 3 -17 1 -28 -6 -28 -6 0 -11 7 -11 15 0
8 -576 -561 -1280 -1265 -957 -957 -1280 -1286 -1280 -1303 0 -13 5 -28 11
-34 6 -6 9 -17 7 -25 -3 -7 -13 4 -24 27 -21 43 -50 62 -35 22 5 -12 4 -33 -1
-47 -8 -23 -10 -23 -19 -7 -6 9 -7 23 -3 30 5 9 4 9 -5 1 -10 -9 -7 -23 15
-65 15 -30 31 -65 35 -79 8 -22 8 -21 3 5 -3 17 -6 38 -7 47 -1 9 -4 15 -8 12
-9 -5 -21 25 -13 37 10 17 22 9 34 -23 7 -18 40 -88 72 -155 34 -70 57 -127
52 -134 -4 -8 -19 12 -40 52 -18 35 -33 61 -34 56 0 -9 69 -147 74 -147 2 0 3
7 2 16 -2 32 19 24 37 -13 26 -55 51 -98 60 -101 4 -2 7 -10 7 -18 0 -8 9 -24
20 -36 11 -12 20 -28 20 -35 0 -7 5 -13 10 -13 6 0 10 -5 10 -10 0 -10 95
-158 109 -170 3 -3 11 -12 16 -21 27 -44 65 -97 77 -110 7 -8 33 -41 58 -74
174 -232 485 -557 700 -731 19 -16 37 -31 40 -34 3 -3 25 -21 50 -40 25 -19
47 -37 50 -40 3 -3 21 -17 40 -30 19 -13 37 -27 40 -30 3 -4 28 -22 55 -40 28
-19 52 -37 53 -42 2 -4 10 -8 17 -8 7 0 15 -4 17 -8 4 -12 95 -72 107 -72 6 0
11 -4 11 -10 0 -5 7 -10 15 -10 8 0 15 -4 15 -10 0 -5 5 -10 11 -10 6 0 23 -8
37 -19 15 -10 43 -28 63 -39 76 -42 84 -47 89 -52 23 -23 401 -207 538 -261
12 -5 34 -14 50 -20 15 -7 38 -16 52 -22 14 -5 33 -13 42 -18 10 -5 25 -9 33
-9 8 0 23 -4 33 -10 18 -10 152 -56 210 -71 17 -5 47 -13 65 -18 121 -36 153
-44 325 -81 151 -34 309 -57 547 -82 156 -16 693 -16 850 0 216 22 410 51 548
81 117 26 135 31 177 41 25 6 60 14 78 17 18 3 35 9 38 14 3 5 18 9 34 9 16 0
32 5 35 10 3 6 15 10 26 10 10 0 27 4 37 9 9 5 51 19 92 32 41 12 79 26 85 31
5 4 17 8 27 8 10 0 26 4 36 9 17 9 51 23 95 40 12 4 36 14 52 21 17 7 39 16
50 20 75 28 471 224 485 241 3 3 20 12 38 20 17 8 32 17 32 21 0 5 5 8 11 8 6
0 29 13 52 28 23 15 54 34 70 41 15 8 27 18 27 23 0 4 5 8 11 8 12 0 103 60
107 72 2 4 8 8 13 8 7 0 65 41 119 83 8 7 31 23 50 37 19 13 37 27 40 30 3 3
21 17 42 32 20 15 42 33 50 40 7 7 29 26 48 42 168 137 482 451 582 581 12 17
29 36 36 44 14 14 84 105 112 145 8 11 25 32 37 46 13 14 23 28 23 31 0 3 11
19 25 35 14 16 25 34 25 41 0 6 4 13 8 15 12 4 112 155 112 168 0 5 4 10 9 10
5 0 14 14 21 30 7 17 16 30 21 30 5 0 9 9 9 20 0 11 4 20 8 20 4 0 19 22 33
50 13 27 27 50 32 50 4 0 7 9 7 20 0 27 18 25 22 -2 3 -18 12 -6 42 52 21 41
42 77 47 78 5 2 9 12 9 23 0 10 5 19 10 19 6 0 10 9 10 20 0 11 5 20 10 20 6
0 10 7 10 15 0 9 14 43 30 76 18 34 27 65 23 72 -5 8 -10 1 -14 -18 -5 -24 -7
-27 -14 -12 -4 10 1 34 14 62 12 25 21 52 21 60 0 8 5 15 10 15 6 0 10 -11 10
-25 0 -37 13 -30 27 13 7 23 8 41 2 47 -5 5 -9 -2 -9 -20 0 -22 -3 -26 -12
-17 -9 9 -8 22 2 54 8 24 17 45 20 48 3 3 16 39 30 80 13 41 27 79 32 85 4 5
8 17 8 27 0 10 4 26 9 36 9 16 37 109 61 202 7 25 16 54 20 65 5 11 11 34 15
50 3 17 11 50 16 75 6 25 12 61 15 80 3 19 9 44 14 55 5 11 11 43 15 70 3 28
11 75 16 105 39 227 54 440 54 760 0 320 -15 533 -54 760 -5 30 -13 78 -16
105 -4 28 -10 59 -15 70 -5 11 -11 36 -14 55 -3 19 -10 58 -16 85 -6 28 -14
65 -17 83 -3 18 -9 35 -14 38 -5 3 -9 18 -9 34 0 16 -4 32 -10 35 -5 3 -10 16
-10 27 0 20 -13 69 -31 113 -4 11 -13 38 -20 60 -6 22 -15 48 -20 57 -5 10 -9
27 -9 37 0 11 -4 22 -8 25 -4 3 -14 28 -22 55 -7 28 -17 51 -22 51 -4 0 -8 7
-8 15 0 9 -9 35 -20 57 -11 23 -20 45 -20 50 0 5 -9 28 -21 53 -13 28 -18 52
-14 62 7 15 9 12 14 -12 4 -19 9 -26 14 -18 4 7 -5 38 -23 72 -16 33 -30 67
-30 76 0 8 -4 15 -10 15 -5 0 -10 9 -10 20 0 11 -4 20 -10 20 -5 0 -10 9 -10
19 0 11 -4 21 -9 23 -5 2 -25 36 -45 76 -37 74 -45 84 -42 56 0 -9 -5 -19 -11
-21 -8 -3 -13 4 -13 15 0 11 -3 22 -7 24 -18 7 -55 90 -46 99 7 7 15 -1 23
-20 12 -30 30 -42 30 -21 0 6 -4 10 -9 10 -5 0 -14 14 -21 30 -15 35 -28 47
-26 23 0 -9 -5 -18 -11 -20 -8 -3 -13 4 -13 16 0 12 -4 21 -8 21 -14 0 -34 52
-24 62 5 5 14 -3 22 -21 7 -17 16 -31 21 -31 12 0 11 8 -1 23 -6 7 -26 36 -45
65 -42 68 -44 70 -31 27 6 -19 17 -35 24 -35 8 0 12 -5 10 -12 -6 -16 -28 -23
-28 -8 0 11 -134 215 -157 238 -7 7 -13 17 -13 20 0 4 -10 18 -23 32 -12 14
-30 36 -40 50 -18 26 -49 66 -125 161 -151 187 -438 474 -627 625 -33 27 -62
51 -65 54 -3 3 -32 25 -65 50 -33 25 -62 48 -65 51 -3 3 -27 21 -55 39 -27 19
-51 37 -53 42 -2 4 -10 8 -18 8 -8 0 -14 4 -14 8 0 5 -12 15 -27 23 -16 8 -37
22 -47 31 -11 10 -32 24 -48 30 -15 7 -28 16 -28 20 0 5 -5 8 -11 8 -6 0 -30
14 -54 30 -24 17 -48 30 -54 30 -14 0 -14 17 0 26 6 3 16 1 22 -5 6 -6 16 -11
21 -11 6 0 -9 13 -34 30 -43 29 -72 34 -34 6 27 -20 9 -32 -24 -15 -15 8 -29
16 -32 19 -3 3 -18 12 -35 20 -16 8 -42 22 -57 32 -14 10 -33 18 -41 18 -9 0
-17 3 -19 8 -4 9 -198 103 -244 119 -18 6 -37 7 -43 3z m-926 -4964 c195 -3
274 -9 360 -24 304 -57 612 -192 864 -380 96 -72 285 -254 364 -352 279 -346
447 -802 451 -1225 1 -116 0 -122 -29 -174 -56 -102 -171 -157 -276 -133 -97
23 -177 101 -198 194 -5 24 -12 95 -15 158 -29 609 -457 1159 -1048 1348 -220
71 -137 67 -1418 67 -1076 0 -1161 -1 -1245 -18 -674 -136 -1163 -671 -1235
-1349 -5 -51 -10 -118 -10 -148 -2 -227 -274 -343 -439 -187 -59 56 -81 118
-81 227 0 515 242 1064 633 1436 348 331 806 535 1263 562 119 7 1587 5 2059
-2z"/>
<path d="M4985 7540 c-13 -6 9 -9 68 -9 51 -1 87 -5 87 -11 0 -5 -13 -10 -30
-10 -26 0 -99 -69 -590 -560 -308 -308 -560 -568 -561 -577 -1 -12 -4 -10 -9
7 -4 14 -6 63 -3 110 8 125 -11 89 -27 -50 -14 -130 -4 -264 31 -405 133 -528
620 -905 1169 -905 343 0 655 136 892 389 402 429 433 1085 74 1562 -180 239
-448 400 -752 453 -95 17 -315 20 -349 6z"/>
<path d="M1980 1574 c0 -8 103 -103 153 -142 244 -188 498 -361 662 -452 154
-85 287 -151 292 -146 8 8 11 6 -72 46 -38 19 -72 38 -75 42 -3 3 -18 10 -33
13 -16 4 -31 13 -34 21 -2 7 -11 10 -19 7 -7 -3 -17 2 -20 11 -3 9 -11 13 -17
9 -5 -3 -15 0 -21 8 -6 8 -23 20 -38 26 -16 7 -28 17 -28 22 0 6 -7 8 -15 5
-8 -4 -17 1 -21 10 -3 9 -12 16 -18 16 -7 0 -22 9 -34 20 -12 11 -28 20 -37
20 -8 0 -15 5 -15 10 0 6 -6 10 -12 10 -7 0 -38 18 -68 40 -30 22 -65 44 -77
50 -12 5 -28 18 -35 30 -7 11 -18 20 -24 20 -7 0 -30 15 -53 33 -22 17 -59 46
-82 62 -22 17 -62 49 -88 73 -27 23 -53 42 -58 42 -6 0 -29 20 -51 44 -42 46
-62 62 -62 50z"/>
<path d="M8201 1530 c-28 -27 -55 -50 -59 -50 -4 0 -28 -19 -54 -43 -26 -23
-65 -55 -88 -72 -22 -16 -59 -45 -81 -62 -23 -18 -45 -33 -50 -33 -5 0 -23
-13 -39 -30 -16 -16 -36 -30 -45 -30 -8 0 -15 -5 -15 -10 0 -6 -12 -16 -27
-23 -15 -6 -36 -20 -45 -29 -10 -10 -25 -18 -33 -18 -8 0 -15 -4 -15 -10 0 -5
-7 -10 -15 -10 -9 0 -25 -9 -37 -20 -12 -11 -27 -20 -34 -20 -6 0 -15 -7 -18
-16 -3 -8 -10 -13 -16 -9 -5 3 -20 -3 -32 -14 -12 -12 -27 -21 -34 -21 -6 0
-14 -7 -18 -15 -3 -8 -12 -12 -19 -9 -8 3 -17 -2 -20 -10 -4 -9 -13 -13 -22
-10 -8 3 -15 1 -15 -5 0 -6 -6 -11 -14 -11 -8 0 -16 -3 -18 -8 -1 -4 -52 -32
-113 -62 -126 -62 -120 -58 -113 -66 3 -3 59 22 124 55 313 159 523 295 871
563 58 45 156 138 151 143 -3 3 -28 -17 -57 -45z"/>
</g>
</svg>
